<svg width="49" height="53" viewBox="0 0 49 53" fill="none" xmlns="http://www.w3.org/2000/svg">
<g id="Illus">
<path id="Path" fill-rule="evenodd" clip-rule="evenodd" d="M17.5267 35.1895C17.4809 35.5127 17.4572 35.8431 17.4572 36.179C17.4572 40.0517 20.6103 43.1911 24.5 43.1911C28.3896 43.1911 31.5428 40.0517 31.5428 36.179C31.5428 35.8431 31.5191 35.5127 31.4732 35.1895H48.5629V50.7876C48.5629 51.7557 47.7746 52.5406 46.8022 52.5406H2.19772C1.22531 52.5406 0.437012 51.7557 0.437012 50.7876V35.1895H17.5267Z" fill="white"/>
<path id="Path_2" fill-rule="evenodd" clip-rule="evenodd" d="M32.1297 35.0102C32.1297 39.2056 28.7138 42.6066 24.5 42.6066C20.2862 42.6066 16.8703 39.2056 16.8703 35.0102C16.8703 34.8742 16.8738 34.7391 16.8809 34.605H0.437012L6.04805 18.0869C6.28994 17.3748 6.96092 16.8955 7.71594 16.8955H41.284C42.039 16.8955 42.71 17.3748 42.9519 18.0869L48.5629 34.605H32.119C32.1261 34.7391 32.1297 34.8742 32.1297 35.0102Z" fill="white"/>
<path id="Path_3" fill-rule="evenodd" clip-rule="evenodd" d="M31.0135 35.5681C31.0135 38.81 28.0975 42.0225 24.5003 42.0225C20.9032 42.0225 17.9872 38.81 17.9872 35.5681C17.9872 35.4631 17.9902 34.7744 17.9963 34.6707H5.71948L10.5094 23.0754C10.7159 22.5251 11.2887 22.1548 11.9332 22.1548H37.0675C37.712 22.1548 38.2848 22.5251 38.4913 23.0754L43.2812 34.6707H31.0044C31.0104 34.7744 31.0135 35.4631 31.0135 35.5681Z" fill="#F2F5F9"/>
<path id="Rectangle" fill-rule="evenodd" clip-rule="evenodd" d="M1.17102 34.7254V50.2034C1.17102 50.7681 1.63086 51.226 2.1981 51.226H46.8026C47.3699 51.226 47.8297 50.7681 47.8297 50.2034V34.7254L42.2573 18.3212C42.1162 17.9058 41.7248 17.6262 41.2844 17.6262H7.71633C7.2759 17.6262 6.88449 17.9058 6.74339 18.3212L1.17102 34.7254Z" stroke="#1D233C" stroke-width="1.43615"/>
<path id="Shape" d="M8.65378 34.4263C10.9642 34.4263 13.4575 34.4263 16.1338 34.4263C17.235 34.4263 17.235 35.1968 17.235 35.595C17.235 39.4676 20.4607 42.6071 24.4398 42.6071C28.419 42.6071 31.6447 39.4676 31.6447 35.595C31.6447 35.1968 31.6447 34.4263 32.7459 34.4263H47.3893M4.29529 34.4263H5.71927H4.29529Z" stroke="#1D233C" stroke-width="1.43615" stroke-linecap="round" stroke-linejoin="round"/>
<g id="lines">
<path fill-rule="evenodd" clip-rule="evenodd" d="M23.9718 1.11841V10.9096V1.11841ZM8.65393 3.63268L15.1683 10.9096L8.65393 3.63268ZM39.2313 3.63268L32.7169 10.9096L39.2313 3.63268Z" fill="#F2F5F9"/>
<path d="M39.2313 3.63268L32.7169 10.9096M23.9718 1.11841V10.9096V1.11841ZM8.65393 3.63268L15.1683 10.9096L8.65393 3.63268Z" stroke="#1D233C" stroke-width="1.43615" stroke-linecap="round" stroke-linejoin="round"/>
</g>
</g>
</svg>
